<svg width="1282" height="806" viewBox="0 0 1282 806" fill="none" xmlns="http://www.w3.org/2000/svg">
<mask id="path-1-inside-1_870_74" fill="white">
<path d="M214.315 280.583H1059.92V667.669H219.315C216.554 667.669 214.315 665.431 214.315 662.669V280.583Z"/>
</mask>
<path d="M214.315 280.583H1059.92V667.669H219.315C216.554 667.669 214.315 665.431 214.315 662.669V280.583Z" fill="white"/>
<path d="M214.315 280.583H1059.92H214.315ZM1059.92 670.669H219.315C214.897 670.669 211.315 667.087 211.315 662.669H217.315C217.315 663.774 218.21 664.669 219.315 664.669H1059.92V670.669ZM219.315 670.669C214.897 670.669 211.315 667.087 211.315 662.669V280.583H217.315V662.669C217.315 663.774 218.21 664.669 219.315 664.669V670.669ZM1059.92 280.583V667.669V280.583Z" fill="#4DB6AC" mask="url(#path-1-inside-1_870_74)"/>
<g filter="url(#filter0_d_870_74)">
<rect x="90" y="90" width="1102" height="625.019" rx="20" fill="white"/>
</g>
<path d="M237.624 371.997C237.624 369.236 239.863 366.997 242.624 366.997H285.717C288.478 366.997 290.717 369.236 290.717 371.997V664.118H237.624V371.997Z" fill="#4DB6AC"/>
<path d="M340 397C340 394.239 342.239 392 345 392H388C390.761 392 393 394.239 393 397V664H340V397Z" fill="#4DB6AC"/>
<path d="M442 386C442 383.239 444.239 381 447 381H490C492.761 381 495 383.239 495 386V664H442V386Z" fill="#4DB6AC"/>
<path d="M545 353C545 350.239 547.239 348 550 348H593C595.761 348 598 350.239 598 353V664H545V353Z" fill="#4DB6AC"/>
<path d="M954 342C954 339.239 956.239 337 959 337H1002C1004.76 337 1007 339.239 1007 342V664H954V342Z" fill="#4DB6AC"/>
<path d="M647 397C647 394.239 649.239 392 652 392H695C697.761 392 700 394.239 700 397V664H647V397Z" fill="#4DB6AC"/>
<path d="M749.128 371.997C749.128 369.236 751.367 366.997 754.128 366.997H797.221C799.982 366.997 802.221 369.236 802.221 371.997V664.118H749.128V371.997Z" fill="#4DB6AC"/>
<path d="M851.429 371.997C851.429 369.236 853.667 366.997 856.429 366.997H899.522C902.283 366.997 904.522 369.236 904.522 371.997V664.118H851.429V371.997Z" fill="#4DB6AC"/>
<path d="M290.717 388.57C290.717 385.808 292.955 383.57 295.717 383.57H311.616C314.377 383.57 316.616 385.808 316.616 388.57V664.118H290.717V388.57Z" fill="#00EBA5"/>
<path d="M393 422C393 419.239 395.239 417 398 417H414C416.761 417 419 419.239 419 422V664H393V422Z" fill="#00EBA5"/>
<path d="M495 430C495 427.239 497.239 425 500 425H516C518.761 425 521 427.239 521 430V664H495V430Z" fill="#00EBA5"/>
<path d="M598 391C598 388.239 600.239 386 603 386H619C621.761 386 624 388.239 624 391V664H598V391Z" fill="#00EBA5"/>
<path d="M1007 377C1007 374.239 1009.24 372 1012 372H1028C1030.76 372 1033 374.239 1033 377V664H1007V377Z" fill="#00EBA5"/>
<path d="M700 422C700 419.239 702.239 417 705 417H721C723.761 417 726 419.239 726 422V664H700V422Z" fill="#00EBA5"/>
<path d="M802.221 388.57C802.221 385.808 804.459 383.57 807.221 383.57H823.12C825.881 383.57 828.12 385.808 828.12 388.57V664.118H802.221V388.57Z" fill="#00EBA5"/>
<path d="M904.522 388.57C904.522 385.808 906.76 383.57 909.522 383.57H925.421C928.182 383.57 930.421 385.808 930.421 388.57V664.118H904.522V388.57Z" fill="#00EBA5"/>
<path d="M172.658 664.161C171.77 664.161 171.005 663.951 170.362 663.53C169.719 663.106 169.223 662.498 168.875 661.705C168.527 660.91 168.355 659.954 168.358 658.837C168.361 657.72 168.535 656.772 168.88 655.993C169.228 655.211 169.722 654.616 170.362 654.208C171.005 653.797 171.77 653.592 172.658 653.592C173.547 653.592 174.312 653.797 174.955 654.208C175.602 654.616 176.099 655.211 176.447 655.993C176.795 656.775 176.967 657.723 176.964 658.837C176.964 659.957 176.79 660.915 176.442 661.71C176.094 662.506 175.598 663.114 174.955 663.535C174.316 663.953 173.55 664.161 172.658 664.161ZM172.658 662.148C173.189 662.148 173.618 661.878 173.946 661.338C174.274 660.794 174.437 659.96 174.433 658.837C174.433 658.101 174.359 657.495 174.21 657.017C174.06 656.537 173.853 656.179 173.588 655.943C173.323 655.708 173.013 655.59 172.658 655.59C172.131 655.59 171.706 655.857 171.381 656.391C171.056 656.921 170.892 657.736 170.889 658.837C170.885 659.583 170.957 660.201 171.102 660.691C171.252 661.182 171.46 661.548 171.729 661.79C171.997 662.029 172.307 662.148 172.658 662.148Z" fill="#4DB6AC"/>
<path d="M283.226 679.774V689.955H280.77V682.07H280.711L278.434 683.462V681.335L280.944 679.774H283.226Z" fill="#4DB6AC"/>
<path d="M379.524 689.955V688.185L383.238 684.934C383.516 684.682 383.753 684.452 383.949 684.243C384.144 684.031 384.293 683.819 384.396 683.607C384.499 683.391 384.55 683.158 384.55 682.906C384.55 682.624 384.489 682.384 384.366 682.185C384.244 681.983 384.075 681.827 383.859 681.717C383.644 681.608 383.397 681.553 383.118 681.553C382.837 681.553 382.59 681.611 382.378 681.727C382.165 681.84 382 682.004 381.88 682.22C381.764 682.435 381.706 682.697 381.706 683.005H379.375C379.375 682.312 379.531 681.714 379.842 681.21C380.154 680.707 380.591 680.319 381.155 680.047C381.721 679.772 382.379 679.634 383.128 679.634C383.901 679.634 384.572 679.764 385.142 680.022C385.712 680.281 386.153 680.642 386.464 681.106C386.779 681.567 386.937 682.102 386.937 682.712C386.937 683.099 386.859 683.484 386.703 683.865C386.547 684.246 386.267 684.667 385.863 685.128C385.462 685.589 384.892 686.14 384.152 686.783L382.934 687.907V687.972H387.061V689.955H379.524Z" fill="#4DB6AC"/>
<path d="M488.287 690.095C487.512 690.095 486.824 689.962 486.224 689.697C485.628 689.428 485.157 689.059 484.812 688.588C484.468 688.117 484.292 687.576 484.285 686.962H486.761C486.771 687.184 486.842 687.382 486.975 687.554C487.108 687.723 487.288 687.856 487.517 687.952C487.746 688.048 488.006 688.096 488.297 688.096C488.589 688.096 488.846 688.045 489.068 687.942C489.293 687.836 489.469 687.692 489.595 687.509C489.721 687.324 489.782 687.112 489.779 686.873C489.782 686.634 489.714 686.422 489.575 686.237C489.436 686.051 489.239 685.907 488.984 685.804C488.732 685.701 488.433 685.65 488.089 685.65H487.099V683.9H488.089C488.39 683.9 488.655 683.85 488.884 683.751C489.116 683.651 489.297 683.512 489.426 683.333C489.555 683.151 489.618 682.942 489.615 682.707C489.618 682.478 489.564 682.278 489.451 682.105C489.341 681.93 489.187 681.794 488.988 681.698C488.793 681.601 488.566 681.553 488.307 681.553C488.036 681.553 487.789 681.601 487.567 681.698C487.348 681.794 487.174 681.93 487.045 682.105C486.915 682.281 486.847 682.485 486.841 682.717H484.489C484.496 682.11 484.665 681.577 484.996 681.116C485.328 680.652 485.778 680.289 486.349 680.027C486.922 679.765 487.575 679.634 488.307 679.634C489.037 679.634 489.678 679.762 490.231 680.017C490.785 680.272 491.216 680.62 491.524 681.061C491.832 681.499 491.986 681.994 491.986 682.548C491.99 683.121 491.802 683.593 491.425 683.965C491.05 684.336 490.568 684.564 489.978 684.651V684.73C490.767 684.823 491.362 685.078 491.763 685.496C492.167 685.913 492.368 686.435 492.364 687.062C492.364 687.652 492.19 688.175 491.842 688.633C491.497 689.087 491.017 689.445 490.4 689.707C489.787 689.965 489.083 690.095 488.287 690.095Z" fill="#4DB6AC"/>
<path d="M589.181 688.265V686.346L593.352 679.774H595.057V682.379H594.068L591.627 686.247V686.326H597.668V688.265H589.181ZM594.098 689.955V687.678L594.148 686.838V679.774H596.45V689.955H594.098Z" fill="#4DB6AC"/>
<path d="M691.619 690.095C690.877 690.095 690.217 689.96 689.64 689.692C689.064 689.423 688.608 689.054 688.273 688.583C687.942 688.113 687.769 687.572 687.756 686.962H690.143C690.162 687.337 690.315 687.639 690.6 687.867C690.885 688.093 691.225 688.205 691.619 688.205C691.927 688.205 692.201 688.137 692.439 688.001C692.678 687.866 692.865 687.675 693.001 687.43C693.137 687.181 693.203 686.896 693.2 686.575C693.203 686.247 693.135 685.96 692.996 685.715C692.86 685.469 692.671 685.279 692.429 685.143C692.191 685.004 691.916 684.934 691.604 684.934C691.309 684.931 691.029 684.995 690.764 685.128C690.502 685.26 690.303 685.441 690.167 685.67L687.995 685.262L688.437 679.774H694.97V681.757H690.461L690.227 684.158H690.287C690.456 683.877 690.728 683.645 691.102 683.462C691.48 683.277 691.909 683.184 692.39 683.184C693 683.184 693.543 683.327 694.02 683.612C694.501 683.893 694.879 684.284 695.154 684.785C695.432 685.285 695.571 685.859 695.571 686.505C695.571 687.204 695.406 687.824 695.074 688.364C694.746 688.905 694.286 689.329 693.692 689.637C693.102 689.942 692.411 690.095 691.619 690.095Z" fill="#4DB6AC"/>
<path d="M795.399 690.095C794.842 690.095 794.308 690.005 793.798 689.826C793.288 689.644 792.833 689.355 792.436 688.961C792.038 688.563 791.725 688.043 791.496 687.4C791.267 686.754 791.155 685.966 791.158 685.038C791.161 684.2 791.264 683.448 791.466 682.781C791.668 682.112 791.957 681.543 792.331 681.076C792.709 680.609 793.16 680.252 793.684 680.007C794.211 679.759 794.799 679.634 795.449 679.634C796.161 679.634 796.789 679.774 797.333 680.052C797.88 680.327 798.317 680.698 798.645 681.166C798.973 681.63 799.167 682.147 799.227 682.717H796.806C796.733 682.395 796.572 682.152 796.324 681.986C796.078 681.817 795.787 681.732 795.449 681.732C794.825 681.732 794.36 682.002 794.051 682.543C793.747 683.083 793.591 683.805 793.584 684.71H793.649C793.788 684.405 793.989 684.144 794.25 683.925C794.512 683.706 794.812 683.539 795.15 683.423C795.492 683.303 795.853 683.244 796.234 683.244C796.844 683.244 797.382 683.385 797.85 683.666C798.317 683.948 798.683 684.334 798.949 684.825C799.214 685.312 799.345 685.87 799.341 686.5C799.345 687.209 799.179 687.836 798.844 688.379C798.509 688.92 798.045 689.341 797.452 689.642C796.862 689.944 796.178 690.095 795.399 690.095ZM795.384 688.205C795.685 688.205 795.956 688.134 796.194 687.992C796.433 687.849 796.62 687.655 796.756 687.41C796.892 687.165 796.958 686.888 796.955 686.58C796.958 686.268 796.892 685.991 796.756 685.749C796.623 685.507 796.438 685.315 796.199 685.173C795.964 685.03 795.694 684.959 795.389 684.959C795.167 684.959 794.96 685 794.767 685.083C794.575 685.166 794.408 685.282 794.265 685.431C794.126 685.577 794.017 685.749 793.937 685.948C793.858 686.144 793.816 686.356 793.813 686.585C793.816 686.886 793.886 687.16 794.022 687.405C794.158 687.65 794.343 687.846 794.578 687.992C794.814 688.134 795.082 688.205 795.384 688.205Z" fill="#4DB6AC"/>
<path d="M894.05 689.955L898.157 681.822V681.757H893.354V679.774H900.702V681.772L896.581 689.955H894.05Z" fill="#4DB6AC"/>
<path d="M999.896 690.095C999.104 690.095 998.396 689.969 997.773 689.717C997.153 689.461 996.666 689.117 996.311 688.683C995.96 688.245 995.785 687.751 995.785 687.201C995.785 686.78 995.886 686.394 996.088 686.043C996.29 685.691 996.563 685.4 996.908 685.168C997.256 684.932 997.644 684.782 998.071 684.715V684.636C997.511 684.533 997.052 684.273 996.694 683.855C996.34 683.438 996.162 682.949 996.162 682.389C996.162 681.858 996.323 681.386 996.645 680.972C996.969 680.557 997.412 680.231 997.972 679.992C998.535 679.754 999.177 679.634 999.896 679.634C1000.62 679.634 1001.25 679.754 1001.82 679.992C1002.38 680.231 1002.82 680.557 1003.14 680.972C1003.47 681.386 1003.63 681.858 1003.63 682.389C1003.63 682.952 1003.45 683.443 1003.09 683.86C1002.73 684.274 1002.27 684.533 1001.72 684.636V684.715C1002.14 684.782 1002.53 684.932 1002.87 685.168C1003.22 685.4 1003.5 685.691 1003.7 686.043C1003.9 686.394 1004.01 686.78 1004.01 687.201C1004.01 687.751 1003.83 688.245 1003.48 688.683C1003.12 689.117 1002.63 689.461 1002.01 689.717C1001.4 689.969 1000.69 690.095 999.896 690.095ZM999.896 688.349C1000.2 688.349 1000.46 688.293 1000.69 688.18C1000.92 688.064 1001.1 687.904 1001.23 687.698C1001.36 687.493 1001.43 687.261 1001.43 687.002C1001.43 686.737 1001.36 686.502 1001.23 686.296C1001.1 686.091 1000.91 685.93 1000.68 685.814C1000.45 685.695 1000.19 685.635 999.896 685.635C999.604 685.635 999.343 685.695 999.111 685.814C998.878 685.93 998.696 686.091 998.564 686.296C998.431 686.502 998.365 686.737 998.365 687.002C998.365 687.261 998.429 687.493 998.559 687.698C998.691 687.9 998.872 688.059 999.101 688.175C999.333 688.291 999.598 688.349 999.896 688.349ZM999.896 683.9C1000.15 683.9 1000.38 683.847 1000.58 683.741C1000.78 683.635 1000.94 683.487 1001.05 683.298C1001.17 683.109 1001.23 682.896 1001.23 682.657C1001.23 682.418 1001.17 682.208 1001.05 682.026C1000.94 681.843 1000.79 681.701 1000.59 681.598C1000.39 681.492 1000.16 681.439 999.896 681.439C999.637 681.439 999.407 681.492 999.205 681.598C999.003 681.701 998.845 681.843 998.733 682.026C998.62 682.208 998.564 682.418 998.564 682.657C998.564 682.896 998.62 683.109 998.733 683.298C998.849 683.484 999.008 683.631 999.21 683.741C999.412 683.847 999.641 683.9 999.896 683.9Z" fill="#4DB6AC"/>
<path d="M1139.98 653.508C1139.1 653.508 1138.33 653.297 1137.69 652.876C1137.04 652.452 1136.55 651.844 1136.2 651.052C1135.85 650.256 1135.68 649.3 1135.68 648.183C1135.69 647.066 1135.86 646.118 1136.21 645.34C1136.55 644.557 1137.05 643.962 1137.69 643.555C1138.33 643.144 1139.1 642.938 1139.98 642.938C1140.87 642.938 1141.64 643.144 1142.28 643.555C1142.93 643.962 1143.42 644.557 1143.77 645.34C1144.12 646.122 1144.29 647.07 1144.29 648.183C1144.29 649.304 1144.12 650.261 1143.77 651.057C1143.42 651.852 1142.92 652.461 1142.28 652.881C1141.64 653.299 1140.88 653.508 1139.98 653.508ZM1139.98 651.494C1140.51 651.494 1140.94 651.224 1141.27 650.684C1141.6 650.14 1141.76 649.307 1141.76 648.183C1141.76 647.447 1141.68 646.841 1141.54 646.364C1141.39 645.883 1141.18 645.525 1140.91 645.29C1140.65 645.054 1140.34 644.937 1139.98 644.937C1139.46 644.937 1139.03 645.204 1138.71 645.737C1138.38 646.268 1138.22 647.083 1138.21 648.183C1138.21 648.929 1138.28 649.547 1138.43 650.038C1138.58 650.528 1138.79 650.894 1139.05 651.136C1139.32 651.375 1139.63 651.494 1139.98 651.494Z" fill="#4DB6AC"/>
<path d="M162.796 598.095V608.277H160.34V600.392H160.28L158.003 601.784V599.656L160.514 598.095H162.796ZM169.258 608.525C168.37 608.525 167.604 608.315 166.961 607.894C166.318 607.47 165.823 606.862 165.475 606.069C165.126 605.274 164.954 604.318 164.957 603.201C164.961 602.084 165.135 601.136 165.479 600.357C165.827 599.575 166.321 598.98 166.961 598.572C167.604 598.161 168.37 597.956 169.258 597.956C170.146 597.956 170.912 598.161 171.555 598.572C172.201 598.98 172.698 599.575 173.046 600.357C173.394 601.139 173.567 602.087 173.563 603.201C173.563 604.321 173.389 605.279 173.041 606.074C172.693 606.87 172.198 607.478 171.555 607.899C170.915 608.317 170.149 608.525 169.258 608.525ZM169.258 606.512C169.788 606.512 170.217 606.242 170.546 605.702C170.874 605.158 171.036 604.324 171.033 603.201C171.033 602.465 170.958 601.859 170.809 601.381C170.66 600.901 170.453 600.543 170.188 600.307C169.922 600.072 169.613 599.954 169.258 599.954C168.731 599.954 168.305 600.221 167.98 600.755C167.655 601.285 167.491 602.1 167.488 603.201C167.485 603.947 167.556 604.565 167.702 605.055C167.851 605.546 168.06 605.912 168.328 606.154C168.597 606.393 168.907 606.512 169.258 606.512Z" fill="#4DB6AC"/>
<path d="M1139.67 597.762C1138.93 597.762 1138.27 597.628 1137.69 597.36C1137.12 597.091 1136.66 596.722 1136.32 596.251C1135.99 595.78 1135.82 595.24 1135.81 594.63H1138.19C1138.21 595.005 1138.37 595.306 1138.65 595.535C1138.94 595.76 1139.28 595.873 1139.67 595.873C1139.98 595.873 1140.25 595.805 1140.49 595.669C1140.73 595.533 1140.92 595.343 1141.05 595.097C1141.19 594.849 1141.26 594.564 1141.25 594.242C1141.26 593.914 1141.19 593.628 1141.05 593.382C1140.91 593.137 1140.72 592.946 1140.48 592.811C1140.24 592.671 1139.97 592.602 1139.66 592.602C1139.36 592.598 1139.08 592.663 1138.82 592.796C1138.55 592.928 1138.35 593.109 1138.22 593.338L1136.05 592.93L1136.49 587.441H1143.02V589.425H1138.51L1138.28 591.826H1138.34C1138.51 591.544 1138.78 591.312 1139.15 591.13C1139.53 590.945 1139.96 590.852 1140.44 590.852C1141.05 590.852 1141.59 590.994 1142.07 591.279C1142.55 591.561 1142.93 591.952 1143.21 592.453C1143.48 592.953 1143.62 593.526 1143.62 594.173C1143.62 594.872 1143.46 595.492 1143.13 596.032C1142.8 596.572 1142.34 596.997 1141.74 597.305C1141.15 597.61 1140.46 597.762 1139.67 597.762Z" fill="#4DB6AC"/>
<path d="M155.498 552.641V550.871L159.212 547.619C159.49 547.367 159.727 547.137 159.923 546.928C160.118 546.716 160.267 546.504 160.37 546.292C160.473 546.076 160.524 545.843 160.524 545.591C160.524 545.309 160.463 545.069 160.34 544.87C160.218 544.668 160.049 544.512 159.833 544.403C159.618 544.293 159.371 544.239 159.093 544.239C158.811 544.239 158.564 544.297 158.352 544.413C158.14 544.525 157.974 544.689 157.855 544.905C157.739 545.12 157.681 545.382 157.681 545.69H155.349C155.349 544.998 155.505 544.399 155.816 543.896C156.128 543.392 156.565 543.004 157.129 542.732C157.695 542.457 158.353 542.32 159.102 542.32C159.875 542.32 160.546 542.449 161.116 542.707C161.686 542.966 162.127 543.327 162.438 543.791C162.753 544.252 162.911 544.787 162.911 545.397C162.911 545.785 162.833 546.169 162.677 546.55C162.521 546.932 162.241 547.353 161.837 547.813C161.436 548.274 160.866 548.826 160.127 549.469L158.909 550.592V550.657H163.035V552.641H155.498ZM168.637 552.889C167.748 552.889 166.983 552.679 166.34 552.258C165.697 551.834 165.201 551.225 164.853 550.433C164.505 549.638 164.333 548.682 164.336 547.565C164.34 546.448 164.514 545.5 164.858 544.721C165.206 543.939 165.7 543.344 166.34 542.936C166.983 542.525 167.748 542.32 168.637 542.32C169.525 542.32 170.291 542.525 170.934 542.936C171.58 543.344 172.077 543.939 172.425 544.721C172.773 545.503 172.945 546.451 172.942 547.565C172.942 548.685 172.768 549.643 172.42 550.438C172.072 551.234 171.577 551.842 170.934 552.263C170.294 552.68 169.528 552.889 168.637 552.889ZM168.637 550.876C169.167 550.876 169.596 550.606 169.924 550.065C170.252 549.522 170.415 548.688 170.412 547.565C170.412 546.829 170.337 546.222 170.188 545.745C170.039 545.264 169.832 544.906 169.566 544.671C169.301 544.436 168.991 544.318 168.637 544.318C168.11 544.318 167.684 544.585 167.359 545.119C167.034 545.649 166.87 546.464 166.867 547.565C166.864 548.31 166.935 548.929 167.081 549.419C167.23 549.91 167.439 550.276 167.707 550.518C167.976 550.756 168.285 550.876 168.637 550.876Z" fill="#4DB6AC"/>
<path d="M1137.89 531.805V541.987H1135.44V534.102H1135.38L1133.1 535.494V533.366L1135.61 531.805H1137.89ZM1144.35 542.235C1143.46 542.235 1142.7 542.025 1142.06 541.604C1141.41 541.18 1140.92 540.572 1140.57 539.779C1140.22 538.984 1140.05 538.028 1140.05 536.911C1140.06 535.794 1140.23 534.846 1140.57 534.067C1140.92 533.285 1141.42 532.69 1142.06 532.282C1142.7 531.871 1143.46 531.666 1144.35 531.666C1145.24 531.666 1146.01 531.871 1146.65 532.282C1147.3 532.69 1147.79 533.285 1148.14 534.067C1148.49 534.849 1148.66 535.797 1148.66 536.911C1148.66 538.031 1148.48 538.989 1148.14 539.784C1147.79 540.58 1147.29 541.188 1146.65 541.609C1146.01 542.027 1145.24 542.235 1144.35 542.235ZM1144.35 540.222C1144.88 540.222 1145.31 539.952 1145.64 539.412C1145.97 538.868 1146.13 538.034 1146.13 536.911C1146.13 536.175 1146.05 535.568 1145.9 535.091C1145.76 534.611 1145.55 534.253 1145.28 534.017C1145.02 533.782 1144.71 533.664 1144.35 533.664C1143.83 533.664 1143.4 533.931 1143.08 534.465C1142.75 534.995 1142.59 535.81 1142.58 536.911C1142.58 537.657 1142.65 538.275 1142.8 538.765C1142.95 539.256 1143.15 539.622 1143.42 539.864C1143.69 540.103 1144 540.222 1144.35 540.222Z" fill="#4DB6AC"/>
<path d="M158.076 497.144C157.3 497.144 156.613 497.011 156.013 496.746C155.416 496.477 154.946 496.108 154.601 495.637C154.256 495.167 154.08 494.625 154.074 494.011H156.55C156.56 494.234 156.631 494.431 156.763 494.603C156.896 494.772 157.077 494.905 157.305 495.001C157.534 495.097 157.794 495.145 158.086 495.145C158.378 495.145 158.634 495.094 158.857 494.991C159.082 494.885 159.258 494.741 159.384 494.558C159.509 494.373 159.571 494.161 159.567 493.922C159.571 493.683 159.503 493.471 159.364 493.286C159.224 493.1 159.027 492.956 158.772 492.853C158.52 492.75 158.222 492.699 157.877 492.699H156.888V490.949H157.877C158.179 490.949 158.444 490.899 158.673 490.8C158.905 490.7 159.085 490.561 159.214 490.382C159.344 490.2 159.407 489.991 159.403 489.756C159.407 489.527 159.352 489.327 159.239 489.154C159.13 488.979 158.976 488.843 158.777 488.747C158.581 488.65 158.354 488.602 158.096 488.602C157.824 488.602 157.577 488.65 157.355 488.747C157.136 488.843 156.962 488.979 156.833 489.154C156.704 489.33 156.636 489.534 156.629 489.766H154.278C154.284 489.159 154.453 488.626 154.785 488.165C155.116 487.701 155.567 487.338 156.137 487.076C156.71 486.814 157.363 486.683 158.096 486.683C158.825 486.683 159.466 486.811 160.02 487.066C160.573 487.321 161.004 487.669 161.312 488.11C161.621 488.548 161.775 489.043 161.775 489.597C161.778 490.17 161.591 490.642 161.213 491.014C160.839 491.385 160.356 491.614 159.766 491.7V491.779C160.555 491.872 161.15 492.127 161.551 492.545C161.955 492.962 162.156 493.485 162.153 494.111C162.153 494.701 161.979 495.225 161.631 495.682C161.286 496.136 160.805 496.494 160.189 496.756C159.576 497.014 158.871 497.144 158.076 497.144ZM167.752 497.253C166.864 497.253 166.098 497.043 165.455 496.622C164.812 496.197 164.317 495.589 163.969 494.797C163.621 494.002 163.448 493.045 163.452 491.928C163.455 490.811 163.629 489.864 163.974 489.085C164.322 488.302 164.815 487.708 165.455 487.3C166.098 486.889 166.864 486.683 167.752 486.683C168.64 486.683 169.406 486.889 170.049 487.3C170.695 487.708 171.192 488.302 171.54 489.085C171.888 489.867 172.061 490.815 172.057 491.928C172.057 493.049 171.883 494.007 171.535 494.802C171.187 495.597 170.692 496.206 170.049 496.627C169.409 497.044 168.644 497.253 167.752 497.253ZM167.752 495.239C168.282 495.239 168.711 494.969 169.04 494.429C169.368 493.886 169.53 493.052 169.527 491.928C169.527 491.193 169.452 490.586 169.303 490.109C169.154 489.628 168.947 489.27 168.682 489.035C168.416 488.8 168.107 488.682 167.752 488.682C167.225 488.682 166.799 488.949 166.474 489.482C166.149 490.013 165.985 490.828 165.982 491.928C165.979 492.674 166.05 493.292 166.196 493.783C166.345 494.273 166.554 494.64 166.822 494.882C167.091 495.12 167.401 495.239 167.752 495.239Z" fill="#4DB6AC"/>
<path d="M1136.6 476.169V486.351H1134.14V478.466H1134.08L1131.8 479.858V477.73L1134.31 476.169H1136.6ZM1142.74 486.49C1142 486.49 1141.34 486.356 1140.77 486.087C1140.19 485.819 1139.73 485.449 1139.4 484.979C1139.07 484.508 1138.9 483.968 1138.88 483.358H1141.27C1141.29 483.732 1141.44 484.034 1141.73 484.263C1142.01 484.488 1142.35 484.601 1142.74 484.601C1143.05 484.601 1143.33 484.533 1143.57 484.397C1143.8 484.261 1143.99 484.07 1144.13 483.825C1144.26 483.577 1144.33 483.292 1144.33 482.97C1144.33 482.642 1144.26 482.355 1144.12 482.11C1143.99 481.865 1143.8 481.674 1143.56 481.538C1143.32 481.399 1143.04 481.329 1142.73 481.329C1142.43 481.326 1142.15 481.391 1141.89 481.523C1141.63 481.656 1141.43 481.837 1141.29 482.065L1139.12 481.658L1139.56 476.169H1146.1V478.153H1141.59L1141.35 480.554H1141.41C1141.58 480.272 1141.85 480.04 1142.23 479.858C1142.61 479.672 1143.03 479.579 1143.52 479.579C1144.13 479.579 1144.67 479.722 1145.15 480.007C1145.63 480.289 1146 480.68 1146.28 481.18C1146.56 481.681 1146.7 482.254 1146.7 482.9C1146.7 483.6 1146.53 484.22 1146.2 484.76C1145.87 485.3 1145.41 485.724 1144.82 486.033C1144.23 486.337 1143.54 486.49 1142.74 486.49Z" fill="#4DB6AC"/>
<path d="M154.079 439.678V437.759L158.25 431.186H159.955V433.791H158.966L156.525 437.659V437.739H162.565V439.678H154.079ZM158.996 441.368V439.091L159.045 438.251V431.186H161.347V441.368H158.996ZM168.066 441.617C167.178 441.617 166.413 441.406 165.77 440.985C165.127 440.561 164.631 439.953 164.283 439.161C163.935 438.365 163.763 437.409 163.766 436.292C163.769 435.175 163.943 434.227 164.288 433.448C164.636 432.666 165.13 432.071 165.77 431.664C166.413 431.253 167.178 431.047 168.066 431.047C168.955 431.047 169.72 431.253 170.363 431.664C171.01 432.071 171.507 432.666 171.855 433.448C172.203 434.231 172.375 435.179 172.372 436.292C172.372 437.412 172.198 438.37 171.85 439.166C171.502 439.961 171.006 440.569 170.363 440.99C169.724 441.408 168.958 441.617 168.066 441.617ZM168.066 439.603C168.597 439.603 169.026 439.333 169.354 438.793C169.682 438.249 169.845 437.416 169.841 436.292C169.841 435.556 169.767 434.95 169.618 434.473C169.468 433.992 169.261 433.634 168.996 433.399C168.731 433.163 168.421 433.046 168.066 433.046C167.539 433.046 167.113 433.313 166.789 433.846C166.464 434.376 166.3 435.192 166.296 436.292C166.293 437.038 166.364 437.656 166.51 438.147C166.659 438.637 166.868 439.003 167.137 439.245C167.405 439.484 167.715 439.603 168.066 439.603Z" fill="#4DB6AC"/>
<path d="M1131.89 430.714V428.945L1135.6 425.693C1135.88 425.441 1136.12 425.211 1136.31 425.002C1136.51 424.79 1136.66 424.578 1136.76 424.366C1136.86 424.15 1136.91 423.917 1136.91 423.665C1136.91 423.383 1136.85 423.143 1136.73 422.944C1136.61 422.742 1136.44 422.586 1136.22 422.477C1136.01 422.367 1135.76 422.312 1135.48 422.312C1135.2 422.312 1134.95 422.37 1134.74 422.486C1134.53 422.599 1134.36 422.763 1134.24 422.979C1134.13 423.194 1134.07 423.456 1134.07 423.764H1131.74C1131.74 423.071 1131.89 422.473 1132.21 421.969C1132.52 421.466 1132.96 421.078 1133.52 420.806C1134.09 420.531 1134.74 420.393 1135.49 420.393C1136.26 420.393 1136.94 420.523 1137.51 420.781C1138.08 421.04 1138.52 421.401 1138.83 421.865C1139.14 422.326 1139.3 422.861 1139.3 423.471C1139.3 423.859 1139.22 424.243 1139.07 424.624C1138.91 425.005 1138.63 425.426 1138.23 425.887C1137.83 426.348 1137.26 426.9 1136.52 427.543L1135.3 428.666V428.731H1139.43V430.714H1131.89ZM1145.03 430.963C1144.14 430.963 1143.37 430.753 1142.73 430.332C1142.09 429.907 1141.59 429.299 1141.24 428.507C1140.9 427.712 1140.72 426.755 1140.73 425.638C1140.73 424.522 1140.9 423.574 1141.25 422.795C1141.6 422.013 1142.09 421.418 1142.73 421.01C1143.37 420.599 1144.14 420.393 1145.03 420.393C1145.92 420.393 1146.68 420.599 1147.32 421.01C1147.97 421.418 1148.47 422.013 1148.82 422.795C1149.16 423.577 1149.34 424.525 1149.33 425.638C1149.33 426.759 1149.16 427.717 1148.81 428.512C1148.46 429.308 1147.97 429.916 1147.32 430.337C1146.68 430.754 1145.92 430.963 1145.03 430.963ZM1145.03 428.95C1145.56 428.95 1145.99 428.679 1146.31 428.139C1146.64 427.596 1146.81 426.762 1146.8 425.638C1146.8 424.903 1146.73 424.296 1146.58 423.819C1146.43 423.338 1146.22 422.98 1145.96 422.745C1145.69 422.51 1145.38 422.392 1145.03 422.392C1144.5 422.392 1144.07 422.659 1143.75 423.192C1143.42 423.723 1143.26 424.538 1143.26 425.638C1143.25 426.384 1143.32 427.002 1143.47 427.493C1143.62 427.983 1143.83 428.35 1144.1 428.592C1144.37 428.83 1144.68 428.95 1145.03 428.95Z" fill="#4DB6AC"/>
<path d="M158.101 385.871C157.358 385.871 156.699 385.737 156.122 385.469C155.545 385.2 155.09 384.831 154.755 384.36C154.424 383.889 154.251 383.349 154.238 382.739H156.624C156.644 383.114 156.797 383.415 157.082 383.644C157.367 383.869 157.706 383.982 158.101 383.982C158.409 383.982 158.683 383.914 158.921 383.778C159.16 383.642 159.347 383.452 159.483 383.206C159.619 382.958 159.685 382.673 159.682 382.351C159.685 382.023 159.617 381.737 159.478 381.491C159.342 381.246 159.153 381.055 158.911 380.92C158.673 380.78 158.397 380.711 158.086 380.711C157.791 380.707 157.511 380.772 157.246 380.905C156.984 381.037 156.785 381.218 156.649 381.447L154.477 381.039L154.919 375.55H161.452V377.534H156.942L156.709 379.935H156.768C156.937 379.653 157.209 379.421 157.584 379.239C157.962 379.054 158.391 378.961 158.871 378.961C159.481 378.961 160.025 379.103 160.502 379.388C160.983 379.67 161.361 380.061 161.636 380.562C161.914 381.062 162.053 381.635 162.053 382.282C162.053 382.981 161.888 383.601 161.556 384.141C161.228 384.681 160.767 385.106 160.174 385.414C159.584 385.719 158.893 385.871 158.101 385.871ZM167.615 385.981C166.727 385.981 165.961 385.77 165.318 385.349C164.675 384.925 164.18 384.317 163.832 383.525C163.484 382.729 163.311 381.773 163.315 380.656C163.318 379.539 163.492 378.591 163.837 377.812C164.185 377.03 164.679 376.435 165.318 376.028C165.961 375.617 166.727 375.411 167.615 375.411C168.503 375.411 169.269 375.617 169.912 376.028C170.558 376.435 171.056 377.03 171.404 377.812C171.752 378.595 171.924 379.542 171.921 380.656C171.921 381.776 171.747 382.734 171.399 383.53C171.051 384.325 170.555 384.933 169.912 385.354C169.272 385.772 168.507 385.981 167.615 385.981ZM167.615 383.967C168.146 383.967 168.575 383.697 168.903 383.157C169.231 382.613 169.393 381.78 169.39 380.656C169.39 379.92 169.315 379.314 169.166 378.836C169.017 378.356 168.81 377.998 168.545 377.763C168.28 377.527 167.97 377.41 167.615 377.41C167.088 377.41 166.662 377.676 166.338 378.21C166.013 378.74 165.849 379.556 165.845 380.656C165.842 381.402 165.913 382.02 166.059 382.51C166.208 383.001 166.417 383.367 166.686 383.609C166.954 383.848 167.264 383.967 167.615 383.967Z" fill="#4DB6AC"/>
<path d="M1131.89 375.078V373.308L1135.6 370.057C1135.88 369.805 1136.12 369.575 1136.31 369.366C1136.51 369.154 1136.66 368.942 1136.76 368.73C1136.86 368.514 1136.91 368.281 1136.91 368.029C1136.91 367.747 1136.85 367.507 1136.73 367.308C1136.61 367.106 1136.44 366.95 1136.22 366.84C1136.01 366.731 1135.76 366.676 1135.48 366.676C1135.2 366.676 1134.95 366.734 1134.74 366.85C1134.53 366.963 1134.36 367.127 1134.24 367.343C1134.13 367.558 1134.07 367.82 1134.07 368.128H1131.74C1131.74 367.435 1131.89 366.837 1132.21 366.333C1132.52 365.83 1132.96 365.442 1133.52 365.17C1134.09 364.895 1134.74 364.757 1135.49 364.757C1136.26 364.757 1136.94 364.887 1137.51 365.145C1138.08 365.404 1138.52 365.765 1138.83 366.229C1139.14 366.69 1139.3 367.225 1139.3 367.835C1139.3 368.223 1139.22 368.607 1139.07 368.988C1138.91 369.369 1138.63 369.79 1138.23 370.251C1137.83 370.712 1137.26 371.264 1136.52 371.906L1135.3 373.03V373.095H1139.43V375.078H1131.89ZM1144.71 375.218C1143.97 375.218 1143.31 375.083 1142.73 374.815C1142.16 374.546 1141.7 374.177 1141.37 373.706C1141.04 373.236 1140.86 372.695 1140.85 372.085H1143.24C1143.26 372.46 1143.41 372.762 1143.69 372.99C1143.98 373.216 1144.32 373.328 1144.71 373.328C1145.02 373.328 1145.3 373.26 1145.53 373.125C1145.77 372.989 1145.96 372.798 1146.1 372.553C1146.23 372.304 1146.3 372.019 1146.29 371.698C1146.3 371.37 1146.23 371.083 1146.09 370.838C1145.95 370.592 1145.77 370.402 1145.52 370.266C1145.29 370.127 1145.01 370.057 1144.7 370.057C1144.4 370.054 1144.12 370.118 1143.86 370.251C1143.6 370.384 1143.4 370.564 1143.26 370.793L1141.09 370.385L1141.53 364.897H1148.06V366.88H1143.56L1143.32 369.281H1143.38C1143.55 369 1143.82 368.768 1144.2 368.585C1144.57 368.4 1145 368.307 1145.48 368.307C1146.09 368.307 1146.64 368.45 1147.11 368.735C1147.6 369.016 1147.97 369.407 1148.25 369.908C1148.53 370.408 1148.67 370.982 1148.67 371.628C1148.67 372.327 1148.5 372.947 1148.17 373.487C1147.84 374.028 1147.38 374.452 1146.79 374.76C1146.2 375.065 1145.51 375.218 1144.71 375.218Z" fill="#4DB6AC"/>
<path d="M158.285 331.419C157.728 331.419 157.194 331.329 156.684 331.15C156.174 330.968 155.719 330.68 155.322 330.285C154.924 329.888 154.611 329.367 154.382 328.724C154.153 328.078 154.041 327.291 154.044 326.363C154.047 325.524 154.15 324.772 154.352 324.106C154.554 323.436 154.843 322.868 155.217 322.4C155.595 321.933 156.046 321.577 156.57 321.332C157.097 321.083 157.685 320.959 158.334 320.959C159.047 320.959 159.675 321.098 160.219 321.376C160.766 321.651 161.203 322.023 161.531 322.49C161.859 322.954 162.053 323.471 162.113 324.041H159.692C159.619 323.72 159.458 323.476 159.209 323.31C158.964 323.141 158.673 323.057 158.334 323.057C157.711 323.057 157.246 323.327 156.937 323.867C156.633 324.407 156.477 325.13 156.47 326.035H156.535C156.674 325.73 156.875 325.468 157.136 325.249C157.398 325.03 157.698 324.863 158.036 324.747C158.378 324.628 158.739 324.568 159.12 324.568C159.73 324.568 160.268 324.709 160.736 324.991C161.203 325.272 161.569 325.658 161.834 326.149C162.1 326.636 162.231 327.195 162.227 327.824C162.231 328.534 162.065 329.16 161.73 329.704C161.395 330.244 160.931 330.665 160.338 330.966C159.748 331.268 159.064 331.419 158.285 331.419ZM158.27 329.53C158.571 329.53 158.842 329.458 159.08 329.316C159.319 329.173 159.506 328.979 159.642 328.734C159.778 328.489 159.844 328.212 159.841 327.904C159.844 327.592 159.778 327.316 159.642 327.074C159.509 326.832 159.324 326.64 159.085 326.497C158.85 326.354 158.58 326.283 158.275 326.283C158.053 326.283 157.846 326.325 157.653 326.408C157.461 326.49 157.294 326.606 157.151 326.756C157.012 326.901 156.903 327.074 156.823 327.273C156.744 327.468 156.702 327.68 156.699 327.909C156.702 328.211 156.772 328.484 156.908 328.729C157.044 328.975 157.229 329.17 157.464 329.316C157.7 329.458 157.968 329.53 158.27 329.53ZM167.834 331.528C166.946 331.528 166.18 331.318 165.537 330.897C164.894 330.473 164.399 329.864 164.051 329.072C163.703 328.277 163.53 327.321 163.534 326.204C163.537 325.087 163.711 324.139 164.056 323.36C164.404 322.578 164.897 321.983 165.537 321.575C166.18 321.164 166.946 320.959 167.834 320.959C168.722 320.959 169.488 321.164 170.131 321.575C170.777 321.983 171.274 322.578 171.622 323.36C171.97 324.142 172.143 325.09 172.139 326.204C172.139 327.324 171.965 328.282 171.617 329.077C171.269 329.873 170.774 330.481 170.131 330.902C169.491 331.319 168.726 331.528 167.834 331.528ZM167.834 329.515C168.364 329.515 168.793 329.245 169.122 328.704C169.45 328.161 169.612 327.327 169.609 326.204C169.609 325.468 169.534 324.861 169.385 324.384C169.236 323.903 169.029 323.546 168.764 323.31C168.498 323.075 168.189 322.957 167.834 322.957C167.307 322.957 166.881 323.224 166.556 323.758C166.231 324.288 166.067 325.103 166.064 326.204C166.061 326.949 166.132 327.568 166.278 328.058C166.427 328.549 166.636 328.915 166.904 329.157C167.173 329.395 167.483 329.515 167.834 329.515Z" fill="#4DB6AC"/>
<path d="M1135.76 320.765C1134.99 320.765 1134.3 320.633 1133.7 320.367C1133.1 320.099 1132.63 319.729 1132.29 319.259C1131.94 318.788 1131.77 318.246 1131.76 317.633H1134.23C1134.24 317.855 1134.32 318.052 1134.45 318.225C1134.58 318.394 1134.76 318.526 1134.99 318.622C1135.22 318.719 1135.48 318.767 1135.77 318.767C1136.06 318.767 1136.32 318.715 1136.54 318.612C1136.77 318.506 1136.94 318.362 1137.07 318.18C1137.19 317.994 1137.26 317.782 1137.25 317.544C1137.26 317.305 1137.19 317.093 1137.05 316.907C1136.91 316.722 1136.71 316.577 1136.46 316.475C1136.21 316.372 1135.91 316.321 1135.56 316.321H1134.57V314.571H1135.56C1135.86 314.571 1136.13 314.521 1136.36 314.421C1136.59 314.322 1136.77 314.183 1136.9 314.004C1137.03 313.822 1137.09 313.613 1137.09 313.377C1137.09 313.149 1137.04 312.948 1136.92 312.776C1136.82 312.6 1136.66 312.464 1136.46 312.368C1136.27 312.272 1136.04 312.224 1135.78 312.224C1135.51 312.224 1135.26 312.272 1135.04 312.368C1134.82 312.464 1134.65 312.6 1134.52 312.776C1134.39 312.951 1134.32 313.155 1134.31 313.387H1131.96C1131.97 312.781 1132.14 312.247 1132.47 311.786C1132.8 311.322 1133.25 310.96 1133.82 310.698C1134.4 310.436 1135.05 310.305 1135.78 310.305C1136.51 310.305 1137.15 310.433 1137.7 310.688C1138.26 310.943 1138.69 311.291 1139 311.732C1139.31 312.169 1139.46 312.665 1139.46 313.218C1139.46 313.792 1139.28 314.264 1138.9 314.635C1138.52 315.006 1138.04 315.235 1137.45 315.321V315.401C1138.24 315.494 1138.84 315.749 1139.24 316.166C1139.64 316.584 1139.84 317.106 1139.84 317.733C1139.84 318.322 1139.66 318.846 1139.32 319.304C1138.97 319.758 1138.49 320.116 1137.87 320.377C1137.26 320.636 1136.56 320.765 1135.76 320.765ZM1145.44 320.875C1144.55 320.875 1143.78 320.664 1143.14 320.243C1142.5 319.819 1142 319.211 1141.65 318.419C1141.31 317.623 1141.13 316.667 1141.14 315.55C1141.14 314.433 1141.31 313.485 1141.66 312.706C1142.01 311.924 1142.5 311.329 1143.14 310.921C1143.78 310.51 1144.55 310.305 1145.44 310.305C1146.33 310.305 1147.09 310.51 1147.73 310.921C1148.38 311.329 1148.88 311.924 1149.23 312.706C1149.57 313.488 1149.75 314.436 1149.74 315.55C1149.74 316.67 1149.57 317.628 1149.22 318.424C1148.87 319.219 1148.38 319.827 1147.73 320.248C1147.09 320.666 1146.33 320.875 1145.44 320.875ZM1145.44 318.861C1145.97 318.861 1146.4 318.591 1146.72 318.051C1147.05 317.507 1147.22 316.674 1147.21 315.55C1147.21 314.814 1147.14 314.208 1146.99 313.73C1146.84 313.25 1146.63 312.892 1146.37 312.657C1146.1 312.421 1145.79 312.304 1145.44 312.304C1144.91 312.304 1144.48 312.57 1144.16 313.104C1143.83 313.634 1143.67 314.45 1143.67 315.55C1143.66 316.296 1143.74 316.914 1143.88 317.404C1144.03 317.895 1144.24 318.261 1144.51 318.503C1144.78 318.742 1145.09 318.861 1145.44 318.861Z" fill="#4DB6AC"/>
<rect x="192.301" y="658.199" width="22.0141" height="3.55124" fill="#4DB6AC"/>
<rect x="1090.99" y="647.545" width="22.0141" height="3.55124" fill="#4DB6AC"/>
<rect x="192.301" y="602.563" width="22.0141" height="3.55124" fill="#4DB6AC"/>
<rect x="1090.99" y="591.909" width="22.0141" height="3.55124" fill="#4DB6AC"/>
<rect x="192.301" y="546.927" width="22.0141" height="3.55124" fill="#4DB6AC"/>
<rect x="1090.99" y="536.273" width="22.0141" height="3.55124" fill="#4DB6AC"/>
<rect x="192.301" y="491.291" width="22.0141" height="3.55124" fill="#4DB6AC"/>
<rect x="1090.99" y="480.637" width="22.0141" height="3.55124" fill="#4DB6AC"/>
<rect x="192.301" y="435.655" width="22.0141" height="3.55124" fill="#4DB6AC"/>
<rect x="1090.99" y="425.001" width="22.0141" height="3.55124" fill="#4DB6AC"/>
<rect x="192.301" y="380.018" width="22.0141" height="3.55124" fill="#4DB6AC"/>
<rect x="1090.99" y="369.365" width="22.0141" height="3.55124" fill="#4DB6AC"/>
<rect x="192.301" y="324.382" width="22.0141" height="3.55124" fill="#4DB6AC"/>
<rect x="1090.99" y="313.728" width="22.0141" height="3.55124" fill="#4DB6AC"/>
<mask id="path-56-inside-2_870_74" fill="white">
<path d="M1061.21 294.788H1092.65C1098.17 294.788 1102.65 299.266 1102.65 304.788V657.669C1102.65 663.192 1098.17 667.669 1092.65 667.669H1061.21V294.788Z"/>
</mask>
<path d="M1061.21 294.788H1092.65C1098.17 294.788 1102.65 299.266 1102.65 304.788V657.669C1102.65 663.192 1098.17 667.669 1092.65 667.669H1061.21V294.788Z" fill="white"/>
<path d="M1061.21 291.788H1092.65C1099.83 291.788 1105.65 297.609 1105.65 304.788H1099.65C1099.65 300.922 1096.51 297.788 1092.65 297.788H1061.21V291.788ZM1105.65 657.669C1105.65 664.849 1099.83 670.669 1092.65 670.669H1061.21V664.669H1092.65C1096.51 664.669 1099.65 661.535 1099.65 657.669H1105.65ZM1061.21 667.669V294.788V667.669ZM1092.65 291.788C1099.83 291.788 1105.65 297.609 1105.65 304.788V657.669C1105.65 664.849 1099.83 670.669 1092.65 670.669V664.669C1096.51 664.669 1099.65 661.535 1099.65 657.669V304.788C1099.65 300.922 1096.51 297.788 1092.65 297.788V291.788Z" fill="#4DB6AC" mask="url(#path-56-inside-2_870_74)"/>
<rect x="435.751" y="124.329" width="60.8625" height="46.1662" rx="5" fill="#4DB6AC"/>
<path d="M515.903 150.534H513.21V141.806H516.022C516.869 141.806 517.593 141.981 518.195 142.331C518.798 142.677 519.259 143.176 519.58 143.826C519.901 144.474 520.062 145.25 520.062 146.153C520.062 147.062 519.9 147.845 519.576 148.501C519.252 149.154 518.781 149.657 518.161 150.01C517.542 150.359 516.789 150.534 515.903 150.534ZM514.266 149.596H515.835C516.556 149.596 517.154 149.457 517.629 149.179C518.103 148.9 518.457 148.504 518.69 147.99C518.923 147.475 519.039 146.863 519.039 146.153C519.039 145.448 518.924 144.842 518.694 144.333C518.464 143.822 518.12 143.43 517.663 143.157C517.205 142.882 516.636 142.744 515.954 142.744H514.266V149.596ZM523.624 150.687C523.21 150.687 522.833 150.609 522.495 150.453C522.157 150.294 521.889 150.065 521.69 149.767C521.491 149.466 521.391 149.102 521.391 148.676C521.391 148.301 521.465 147.997 521.613 147.764C521.761 147.528 521.958 147.343 522.205 147.21C522.452 147.076 522.725 146.977 523.024 146.912C523.325 146.843 523.627 146.789 523.931 146.75C524.329 146.698 524.651 146.66 524.899 146.635C525.149 146.606 525.33 146.559 525.444 146.494C525.56 146.429 525.619 146.315 525.619 146.153V146.119C525.619 145.698 525.504 145.372 525.274 145.139C525.046 144.906 524.701 144.789 524.238 144.789C523.758 144.789 523.381 144.894 523.109 145.105C522.836 145.315 522.644 145.539 522.533 145.778L521.579 145.437C521.749 145.039 521.977 144.73 522.261 144.508C522.548 144.284 522.86 144.127 523.198 144.039C523.539 143.948 523.874 143.903 524.204 143.903C524.414 143.903 524.656 143.929 524.928 143.98C525.204 144.028 525.47 144.129 525.725 144.282C525.984 144.436 526.198 144.667 526.369 144.977C526.539 145.287 526.624 145.701 526.624 146.221V150.534H525.619V149.647H525.568C525.499 149.789 525.386 149.941 525.227 150.103C525.068 150.265 524.856 150.403 524.592 150.517C524.327 150.63 524.005 150.687 523.624 150.687ZM523.778 149.784C524.175 149.784 524.511 149.706 524.783 149.549C525.059 149.393 525.266 149.191 525.406 148.944C525.548 148.697 525.619 148.437 525.619 148.164V147.244C525.576 147.295 525.482 147.342 525.337 147.385C525.195 147.424 525.031 147.46 524.843 147.491C524.658 147.519 524.478 147.545 524.302 147.568C524.129 147.588 523.988 147.605 523.88 147.619C523.619 147.653 523.374 147.708 523.147 147.785C522.923 147.859 522.741 147.971 522.602 148.122C522.465 148.269 522.397 148.471 522.397 148.727C522.397 149.076 522.526 149.341 522.785 149.519C523.046 149.696 523.377 149.784 523.778 149.784ZM528.46 150.534V143.988H529.466V150.534H528.46ZM528.971 142.897C528.775 142.897 528.606 142.831 528.464 142.697C528.325 142.564 528.255 142.403 528.255 142.216C528.255 142.028 528.325 141.867 528.464 141.734C528.606 141.6 528.775 141.534 528.971 141.534C529.167 141.534 529.335 141.6 529.474 141.734C529.616 141.867 529.687 142.028 529.687 142.216C529.687 142.403 529.616 142.564 529.474 142.697C529.335 142.831 529.167 142.897 528.971 142.897ZM532.313 141.806V150.534H531.308V141.806H532.313ZM534.803 152.988C534.633 152.988 534.481 152.974 534.347 152.946C534.213 152.92 534.121 152.894 534.07 152.869L534.326 151.983C534.57 152.045 534.786 152.068 534.973 152.051C535.161 152.034 535.327 151.95 535.472 151.799C535.62 151.652 535.755 151.412 535.877 151.079L536.064 150.568L533.644 143.988H534.735L536.542 149.204H536.61L538.417 143.988H539.508L536.729 151.488C536.604 151.826 536.449 152.106 536.265 152.328C536.08 152.552 535.865 152.718 535.621 152.826C535.38 152.934 535.107 152.988 534.803 152.988ZM544.21 152.988V143.988H545.182V145.028H545.301C545.375 144.914 545.477 144.769 545.608 144.593C545.741 144.414 545.932 144.255 546.179 144.116C546.429 143.974 546.767 143.903 547.193 143.903C547.744 143.903 548.23 144.041 548.65 144.316C549.071 144.592 549.399 144.983 549.635 145.488C549.87 145.994 549.988 146.591 549.988 147.278C549.988 147.971 549.87 148.572 549.635 149.081C549.399 149.586 549.072 149.978 548.655 150.257C548.237 150.532 547.755 150.67 547.21 150.67C546.789 150.67 546.453 150.6 546.2 150.461C545.947 150.319 545.753 150.159 545.616 149.98C545.48 149.798 545.375 149.647 545.301 149.528H545.216V152.988H544.21ZM545.199 147.261C545.199 147.755 545.271 148.191 545.416 148.569C545.561 148.944 545.772 149.238 546.051 149.451C546.329 149.662 546.67 149.767 547.074 149.767C547.494 149.767 547.845 149.656 548.126 149.434C548.41 149.21 548.623 148.909 548.765 148.531C548.91 148.15 548.983 147.727 548.983 147.261C548.983 146.801 548.912 146.386 548.77 146.017C548.63 145.644 548.419 145.35 548.135 145.135C547.853 144.916 547.5 144.806 547.074 144.806C546.664 144.806 546.321 144.91 546.042 145.117C545.764 145.322 545.554 145.609 545.412 145.978C545.27 146.345 545.199 146.772 545.199 147.261ZM553.449 150.687C553.034 150.687 552.657 150.609 552.319 150.453C551.981 150.294 551.713 150.065 551.514 149.767C551.315 149.466 551.216 149.102 551.216 148.676C551.216 148.301 551.289 147.997 551.437 147.764C551.585 147.528 551.782 147.343 552.03 147.21C552.277 147.076 552.549 146.977 552.848 146.912C553.149 146.843 553.451 146.789 553.755 146.75C554.153 146.698 554.476 146.66 554.723 146.635C554.973 146.606 555.155 146.559 555.268 146.494C555.385 146.429 555.443 146.315 555.443 146.153V146.119C555.443 145.698 555.328 145.372 555.098 145.139C554.87 144.906 554.525 144.789 554.062 144.789C553.582 144.789 553.206 144.894 552.933 145.105C552.66 145.315 552.468 145.539 552.358 145.778L551.403 145.437C551.574 145.039 551.801 144.73 552.085 144.508C552.372 144.284 552.684 144.127 553.022 144.039C553.363 143.948 553.699 143.903 554.028 143.903C554.238 143.903 554.48 143.929 554.753 143.98C555.028 144.028 555.294 144.129 555.549 144.282C555.808 144.436 556.022 144.667 556.193 144.977C556.363 145.287 556.449 145.701 556.449 146.221V150.534H555.443V149.647H555.392C555.324 149.789 555.21 149.941 555.051 150.103C554.892 150.265 554.68 150.403 554.416 150.517C554.152 150.63 553.829 150.687 553.449 150.687ZM553.602 149.784C554 149.784 554.335 149.706 554.608 149.549C554.883 149.393 555.091 149.191 555.23 148.944C555.372 148.697 555.443 148.437 555.443 148.164V147.244C555.4 147.295 555.307 147.342 555.162 147.385C555.02 147.424 554.855 147.46 554.667 147.491C554.483 147.519 554.302 147.545 554.126 147.568C553.953 147.588 553.812 147.605 553.704 147.619C553.443 147.653 553.199 147.708 552.971 147.785C552.747 147.859 552.565 147.971 552.426 148.122C552.289 148.269 552.221 148.471 552.221 148.727C552.221 149.076 552.351 149.341 552.609 149.519C552.87 149.696 553.201 149.784 553.602 149.784ZM558.284 150.534V143.988H559.256V144.977H559.324C559.443 144.653 559.659 144.39 559.972 144.189C560.284 143.987 560.636 143.886 561.028 143.886C561.102 143.886 561.195 143.887 561.305 143.89C561.416 143.893 561.5 143.897 561.557 143.903V144.926C561.523 144.917 561.445 144.904 561.323 144.887C561.203 144.867 561.077 144.858 560.943 144.858C560.625 144.858 560.341 144.924 560.091 145.058C559.844 145.189 559.648 145.37 559.503 145.603C559.361 145.833 559.29 146.096 559.29 146.392V150.534H558.284ZM563.687 148.147L563.669 146.903H563.874L566.738 143.988H567.982L564.931 147.073H564.846L563.687 148.147ZM562.749 150.534V141.806H563.755V150.534H562.749ZM566.908 150.534L564.351 147.295L565.067 146.596L568.187 150.534H566.908ZM569.276 150.534V143.988H570.282V150.534H569.276ZM569.788 142.897C569.592 142.897 569.423 142.831 569.281 142.697C569.141 142.564 569.072 142.403 569.072 142.216C569.072 142.028 569.141 141.867 569.281 141.734C569.423 141.6 569.592 141.534 569.788 141.534C569.984 141.534 570.151 141.6 570.291 141.734C570.433 141.867 570.504 142.028 570.504 142.216C570.504 142.403 570.433 142.564 570.291 142.697C570.151 142.831 569.984 142.897 569.788 142.897ZM573.13 146.596V150.534H572.124V143.988H573.096V145.011H573.181C573.334 144.679 573.567 144.412 573.88 144.21C574.192 144.005 574.596 143.903 575.09 143.903C575.533 143.903 575.921 143.994 576.253 144.176C576.586 144.355 576.844 144.627 577.029 144.994C577.213 145.358 577.306 145.818 577.306 146.375V150.534H576.3V146.443C576.3 145.929 576.167 145.528 575.9 145.241C575.633 144.951 575.266 144.806 574.8 144.806C574.479 144.806 574.192 144.876 573.939 145.015C573.689 145.154 573.492 145.358 573.347 145.625C573.202 145.892 573.13 146.216 573.13 146.596ZM581.786 153.125C581.3 153.125 580.882 153.062 580.533 152.937C580.183 152.815 579.892 152.653 579.659 152.451C579.429 152.252 579.246 152.039 579.109 151.812L579.911 151.25C580.001 151.369 580.117 151.505 580.256 151.659C580.395 151.815 580.585 151.95 580.827 152.064C581.071 152.18 581.391 152.238 581.786 152.238C582.314 152.238 582.75 152.11 583.094 151.855C583.438 151.599 583.609 151.198 583.609 150.653V149.323H583.524C583.45 149.443 583.345 149.591 583.209 149.767C583.075 149.94 582.882 150.095 582.629 150.231C582.379 150.365 582.041 150.431 581.615 150.431C581.087 150.431 580.612 150.306 580.192 150.056C579.774 149.806 579.443 149.443 579.199 148.966C578.957 148.488 578.837 147.909 578.837 147.227C578.837 146.556 578.955 145.973 579.19 145.475C579.426 144.975 579.754 144.589 580.175 144.316C580.595 144.041 581.081 143.903 581.632 143.903C582.058 143.903 582.396 143.974 582.646 144.116C582.899 144.255 583.092 144.414 583.226 144.593C583.362 144.769 583.467 144.914 583.541 145.028H583.644V143.988H584.615V150.721C584.615 151.284 584.487 151.741 584.232 152.093C583.979 152.448 583.638 152.708 583.209 152.873C582.783 153.041 582.308 153.125 581.786 153.125ZM581.751 149.528C582.155 149.528 582.496 149.436 582.774 149.251C583.053 149.066 583.264 148.801 583.409 148.454C583.554 148.108 583.626 147.693 583.626 147.21C583.626 146.738 583.555 146.322 583.413 145.961C583.271 145.6 583.061 145.318 582.783 145.113C582.504 144.909 582.161 144.806 581.751 144.806C581.325 144.806 580.97 144.914 580.686 145.13C580.405 145.346 580.193 145.636 580.051 146C579.912 146.363 579.842 146.767 579.842 147.21C579.842 147.664 579.913 148.066 580.055 148.416C580.2 148.762 580.413 149.035 580.695 149.234C580.979 149.43 581.331 149.528 581.751 149.528ZM591.757 150.687C591.342 150.687 590.966 150.609 590.628 150.453C590.29 150.294 590.021 150.065 589.823 149.767C589.624 149.466 589.524 149.102 589.524 148.676C589.524 148.301 589.598 147.997 589.746 147.764C589.894 147.528 590.091 147.343 590.338 147.21C590.585 147.076 590.858 146.977 591.156 146.912C591.457 146.843 591.76 146.789 592.064 146.75C592.462 146.698 592.784 146.66 593.031 146.635C593.281 146.606 593.463 146.559 593.577 146.494C593.693 146.429 593.751 146.315 593.751 146.153V146.119C593.751 145.698 593.636 145.372 593.406 145.139C593.179 144.906 592.834 144.789 592.371 144.789C591.891 144.789 591.514 144.894 591.242 145.105C590.969 145.315 590.777 145.539 590.666 145.778L589.712 145.437C589.882 145.039 590.109 144.73 590.394 144.508C590.68 144.284 590.993 144.127 591.331 144.039C591.672 143.948 592.007 143.903 592.337 143.903C592.547 143.903 592.788 143.929 593.061 143.98C593.337 144.028 593.602 144.129 593.858 144.282C594.117 144.436 594.331 144.667 594.501 144.977C594.672 145.287 594.757 145.701 594.757 146.221V150.534H593.751V149.647H593.7C593.632 149.789 593.519 149.941 593.359 150.103C593.2 150.265 592.989 150.403 592.725 150.517C592.46 150.63 592.138 150.687 591.757 150.687ZM591.911 149.784C592.308 149.784 592.644 149.706 592.916 149.549C593.192 149.393 593.399 149.191 593.538 148.944C593.68 148.697 593.751 148.437 593.751 148.164V147.244C593.709 147.295 593.615 147.342 593.47 147.385C593.328 147.424 593.163 147.46 592.976 147.491C592.791 147.519 592.611 147.545 592.435 147.568C592.261 147.588 592.121 147.605 592.013 147.619C591.751 147.653 591.507 147.708 591.28 147.785C591.055 147.859 590.874 147.971 590.734 148.122C590.598 148.269 590.53 148.471 590.53 148.727C590.53 149.076 590.659 149.341 590.918 149.519C591.179 149.696 591.51 149.784 591.911 149.784ZM601.711 143.988L599.29 150.534H598.267L595.847 143.988H596.938L598.745 149.204H598.813L600.62 143.988H601.711ZM604.765 150.687C604.35 150.687 603.974 150.609 603.636 150.453C603.298 150.294 603.029 150.065 602.83 149.767C602.631 149.466 602.532 149.102 602.532 148.676C602.532 148.301 602.606 147.997 602.754 147.764C602.901 147.528 603.099 147.343 603.346 147.21C603.593 147.076 603.866 146.977 604.164 146.912C604.465 146.843 604.768 146.789 605.072 146.75C605.47 146.698 605.792 146.66 606.039 146.635C606.289 146.606 606.471 146.559 606.585 146.494C606.701 146.429 606.759 146.315 606.759 146.153V146.119C606.759 145.698 606.644 145.372 606.414 145.139C606.187 144.906 605.842 144.789 605.379 144.789C604.899 144.789 604.522 144.894 604.249 145.105C603.977 145.315 603.785 145.539 603.674 145.778L602.72 145.437C602.89 145.039 603.117 144.73 603.401 144.508C603.688 144.284 604.001 144.127 604.339 144.039C604.68 143.948 605.015 143.903 605.345 143.903C605.555 143.903 605.796 143.929 606.069 143.98C606.345 144.028 606.61 144.129 606.866 144.282C607.124 144.436 607.339 144.667 607.509 144.977C607.68 145.287 607.765 145.701 607.765 146.221V150.534H606.759V149.647H606.708C606.64 149.789 606.526 149.941 606.367 150.103C606.208 150.265 605.997 150.403 605.732 150.517C605.468 150.63 605.146 150.687 604.765 150.687ZM604.918 149.784C605.316 149.784 605.651 149.706 605.924 149.549C606.2 149.393 606.407 149.191 606.546 148.944C606.688 148.697 606.759 148.437 606.759 148.164V147.244C606.717 147.295 606.623 147.342 606.478 147.385C606.336 147.424 606.171 147.46 605.984 147.491C605.799 147.519 605.619 147.545 605.443 147.568C605.269 147.588 605.129 147.605 605.021 147.619C604.759 147.653 604.515 147.708 604.288 147.785C604.063 147.859 603.881 147.971 603.742 148.122C603.606 148.269 603.538 148.471 603.538 148.727C603.538 149.076 603.667 149.341 603.925 149.519C604.187 149.696 604.518 149.784 604.918 149.784ZM609.601 150.534V143.988H610.606V150.534H609.601ZM610.112 142.897C609.916 142.897 609.747 142.831 609.605 142.697C609.466 142.564 609.396 142.403 609.396 142.216C609.396 142.028 609.466 141.867 609.605 141.734C609.747 141.6 609.916 141.534 610.112 141.534C610.308 141.534 610.476 141.6 610.615 141.734C610.757 141.867 610.828 142.028 610.828 142.216C610.828 142.403 610.757 142.564 610.615 142.697C610.476 142.831 610.308 142.897 610.112 142.897ZM613.454 141.806V150.534H612.448V141.806H613.454ZM617.222 150.687C616.807 150.687 616.431 150.609 616.093 150.453C615.755 150.294 615.486 150.065 615.287 149.767C615.088 149.466 614.989 149.102 614.989 148.676C614.989 148.301 615.063 147.997 615.211 147.764C615.358 147.528 615.556 147.343 615.803 147.21C616.05 147.076 616.323 146.977 616.621 146.912C616.922 146.843 617.225 146.789 617.529 146.75C617.927 146.698 618.249 146.66 618.496 146.635C618.746 146.606 618.928 146.559 619.042 146.494C619.158 146.429 619.216 146.315 619.216 146.153V146.119C619.216 145.698 619.101 145.372 618.871 145.139C618.644 144.906 618.299 144.789 617.836 144.789C617.356 144.789 616.979 144.894 616.706 145.105C616.434 145.315 616.242 145.539 616.131 145.778L615.177 145.437C615.347 145.039 615.574 144.73 615.858 144.508C616.145 144.284 616.458 144.127 616.796 144.039C617.137 143.948 617.472 143.903 617.802 143.903C618.012 143.903 618.253 143.929 618.526 143.98C618.802 144.028 619.067 144.129 619.323 144.282C619.581 144.436 619.796 144.667 619.966 144.977C620.137 145.287 620.222 145.701 620.222 146.221V150.534H619.216V149.647H619.165C619.097 149.789 618.983 149.941 618.824 150.103C618.665 150.265 618.454 150.403 618.189 150.517C617.925 150.63 617.603 150.687 617.222 150.687ZM617.375 149.784C617.773 149.784 618.108 149.706 618.381 149.549C618.657 149.393 618.864 149.191 619.003 148.944C619.145 148.697 619.216 148.437 619.216 148.164V147.244C619.174 147.295 619.08 147.342 618.935 147.385C618.793 147.424 618.628 147.46 618.441 147.491C618.256 147.519 618.076 147.545 617.9 147.568C617.726 147.588 617.586 147.605 617.478 147.619C617.216 147.653 616.972 147.708 616.745 147.785C616.52 147.859 616.338 147.971 616.199 148.122C616.063 148.269 615.995 148.471 615.995 148.727C615.995 149.076 616.124 149.341 616.383 149.519C616.644 149.696 616.975 149.784 617.375 149.784ZM622.194 150.534V141.806H623.2V145.028H623.285C623.359 144.914 623.461 144.769 623.592 144.593C623.725 144.414 623.916 144.255 624.163 144.116C624.413 143.974 624.751 143.903 625.177 143.903C625.728 143.903 626.214 144.041 626.634 144.316C627.055 144.592 627.383 144.983 627.619 145.488C627.854 145.994 627.972 146.591 627.972 147.278C627.972 147.971 627.854 148.572 627.619 149.081C627.383 149.586 627.056 149.978 626.639 150.257C626.221 150.532 625.739 150.67 625.194 150.67C624.774 150.67 624.437 150.6 624.184 150.461C623.931 150.319 623.737 150.159 623.6 149.98C623.464 149.798 623.359 149.647 623.285 149.528H623.166V150.534H622.194ZM623.183 147.261C623.183 147.755 623.255 148.191 623.4 148.569C623.545 148.944 623.756 149.238 624.035 149.451C624.313 149.662 624.654 149.767 625.058 149.767C625.478 149.767 625.829 149.656 626.11 149.434C626.394 149.21 626.607 148.909 626.749 148.531C626.894 148.15 626.967 147.727 626.967 147.261C626.967 146.801 626.896 146.386 626.754 146.017C626.614 145.644 626.403 145.35 626.119 145.135C625.837 144.916 625.484 144.806 625.058 144.806C624.649 144.806 624.305 144.91 624.026 145.117C623.748 145.322 623.538 145.609 623.396 145.978C623.254 146.345 623.183 146.772 623.183 147.261ZM630.516 141.806V150.534H629.511V141.806H630.516ZM635.103 150.67C634.472 150.67 633.928 150.531 633.471 150.252C633.016 149.971 632.665 149.579 632.418 149.076C632.174 148.571 632.052 147.983 632.052 147.312C632.052 146.642 632.174 146.051 632.418 145.539C632.665 145.025 633.009 144.625 633.449 144.338C633.892 144.048 634.41 143.903 635 143.903C635.341 143.903 635.678 143.96 636.01 144.073C636.343 144.187 636.645 144.372 636.918 144.627C637.191 144.88 637.408 145.216 637.57 145.633C637.732 146.051 637.813 146.565 637.813 147.176V147.602H632.767V146.733H636.79C636.79 146.363 636.716 146.034 636.569 145.744C636.424 145.454 636.216 145.225 635.946 145.058C635.679 144.89 635.364 144.806 635 144.806C634.6 144.806 634.253 144.906 633.961 145.105C633.671 145.301 633.448 145.556 633.292 145.872C633.135 146.187 633.057 146.525 633.057 146.886V147.466C633.057 147.96 633.142 148.379 633.313 148.723C633.486 149.064 633.726 149.323 634.033 149.502C634.34 149.679 634.696 149.767 635.103 149.767C635.367 149.767 635.606 149.73 635.819 149.656C636.035 149.579 636.221 149.466 636.377 149.315C636.533 149.162 636.654 148.971 636.739 148.744L637.711 149.017C637.608 149.346 637.437 149.636 637.195 149.886C636.954 150.133 636.655 150.326 636.3 150.466C635.945 150.602 635.546 150.67 635.103 150.67Z" fill="#424242"/>
<path d="M515.903 208.537H513.21V199.81H516.022C516.869 199.81 517.593 199.985 518.195 200.334C518.798 200.681 519.259 201.179 519.58 201.83C519.901 202.478 520.062 203.253 520.062 204.157C520.062 205.066 519.9 205.848 519.576 206.505C519.252 207.158 518.781 207.661 518.161 208.013C517.542 208.363 516.789 208.537 515.903 208.537ZM514.266 207.6H515.835C516.556 207.6 517.154 207.461 517.629 207.182C518.103 206.904 518.457 206.508 518.69 205.993C518.923 205.479 519.039 204.867 519.039 204.157C519.039 203.452 518.924 202.846 518.694 202.337C518.464 201.826 518.12 201.434 517.663 201.161C517.205 200.885 516.636 200.748 515.954 200.748H514.266V207.6ZM523.624 208.691C523.21 208.691 522.833 208.613 522.495 208.456C522.157 208.297 521.889 208.069 521.69 207.77C521.491 207.469 521.391 207.106 521.391 206.679C521.391 206.304 521.465 206 521.613 205.767C521.761 205.532 521.958 205.347 522.205 205.213C522.452 205.08 522.725 204.981 523.024 204.915C523.325 204.847 523.627 204.793 523.931 204.753C524.329 204.702 524.651 204.664 524.899 204.638C525.149 204.61 525.33 204.563 525.444 204.498C525.56 204.432 525.619 204.319 525.619 204.157V204.123C525.619 203.702 525.504 203.375 525.274 203.142C525.046 202.91 524.701 202.793 524.238 202.793C523.758 202.793 523.381 202.898 523.109 203.108C522.836 203.319 522.644 203.543 522.533 203.782L521.579 203.441C521.749 203.043 521.977 202.733 522.261 202.512C522.548 202.287 522.86 202.131 523.198 202.043C523.539 201.952 523.874 201.907 524.204 201.907C524.414 201.907 524.656 201.932 524.928 201.983C525.204 202.032 525.47 202.133 525.725 202.286C525.984 202.439 526.198 202.671 526.369 202.981C526.539 203.29 526.624 203.705 526.624 204.225V208.537H525.619V207.651H525.568C525.499 207.793 525.386 207.945 525.227 208.107C525.068 208.269 524.856 208.407 524.592 208.52C524.327 208.634 524.005 208.691 523.624 208.691ZM523.778 207.787C524.175 207.787 524.511 207.709 524.783 207.553C525.059 207.397 525.266 207.195 525.406 206.948C525.548 206.701 525.619 206.441 525.619 206.168V205.248C525.576 205.299 525.482 205.346 525.337 205.388C525.195 205.428 525.031 205.463 524.843 205.495C524.658 205.523 524.478 205.549 524.302 205.571C524.129 205.591 523.988 205.608 523.88 205.623C523.619 205.657 523.374 205.712 523.147 205.789C522.923 205.863 522.741 205.975 522.602 206.125C522.465 206.273 522.397 206.475 522.397 206.731C522.397 207.08 522.526 207.344 522.785 207.523C523.046 207.699 523.377 207.787 523.778 207.787ZM528.46 208.537V201.992H529.466V208.537H528.46ZM528.971 200.901C528.775 200.901 528.606 200.834 528.464 200.701C528.325 200.567 528.255 200.407 528.255 200.219C528.255 200.032 528.325 199.871 528.464 199.738C528.606 199.604 528.775 199.537 528.971 199.537C529.167 199.537 529.335 199.604 529.474 199.738C529.616 199.871 529.687 200.032 529.687 200.219C529.687 200.407 529.616 200.567 529.474 200.701C529.335 200.834 529.167 200.901 528.971 200.901ZM532.313 199.81V208.537H531.308V199.81H532.313ZM534.803 210.992C534.633 210.992 534.481 210.978 534.347 210.949C534.213 210.924 534.121 210.898 534.07 210.873L534.326 209.986C534.57 210.049 534.786 210.071 534.973 210.054C535.161 210.037 535.327 209.954 535.472 209.803C535.62 209.655 535.755 209.415 535.877 209.083L536.064 208.571L533.644 201.992H534.735L536.542 207.208H536.61L538.417 201.992H539.508L536.729 209.492C536.604 209.83 536.449 210.11 536.265 210.331C536.08 210.556 535.865 210.722 535.621 210.83C535.38 210.938 535.107 210.992 534.803 210.992ZM544.21 210.992V201.992H545.182V203.032H545.301C545.375 202.918 545.477 202.773 545.608 202.597C545.741 202.418 545.932 202.259 546.179 202.12C546.429 201.978 546.767 201.907 547.193 201.907C547.744 201.907 548.23 202.044 548.65 202.32C549.071 202.596 549.399 202.986 549.635 203.492C549.87 203.998 549.988 204.594 549.988 205.282C549.988 205.975 549.87 206.576 549.635 207.084C549.399 207.59 549.072 207.982 548.655 208.26C548.237 208.536 547.755 208.674 547.21 208.674C546.789 208.674 546.453 208.604 546.2 208.465C545.947 208.323 545.753 208.162 545.616 207.983C545.48 207.802 545.375 207.651 545.301 207.532H545.216V210.992H544.21ZM545.199 205.265C545.199 205.759 545.271 206.195 545.416 206.573C545.561 206.948 545.772 207.242 546.051 207.455C546.329 207.665 546.67 207.77 547.074 207.77C547.494 207.77 547.845 207.66 548.126 207.438C548.41 207.213 548.623 206.912 548.765 206.535C548.91 206.154 548.983 205.731 548.983 205.265C548.983 204.804 548.912 204.39 548.77 204.02C548.63 203.648 548.419 203.354 548.135 203.138C547.853 202.919 547.5 202.81 547.074 202.81C546.664 202.81 546.321 202.914 546.042 203.121C545.764 203.326 545.554 203.613 545.412 203.982C545.27 204.348 545.199 204.776 545.199 205.265ZM553.449 208.691C553.034 208.691 552.657 208.613 552.319 208.456C551.981 208.297 551.713 208.069 551.514 207.77C551.315 207.469 551.216 207.106 551.216 206.679C551.216 206.304 551.289 206 551.437 205.767C551.585 205.532 551.782 205.347 552.03 205.213C552.277 205.08 552.549 204.981 552.848 204.915C553.149 204.847 553.451 204.793 553.755 204.753C554.153 204.702 554.476 204.664 554.723 204.638C554.973 204.61 555.155 204.563 555.268 204.498C555.385 204.432 555.443 204.319 555.443 204.157V204.123C555.443 203.702 555.328 203.375 555.098 203.142C554.87 202.91 554.525 202.793 554.062 202.793C553.582 202.793 553.206 202.898 552.933 203.108C552.66 203.319 552.468 203.543 552.358 203.782L551.403 203.441C551.574 203.043 551.801 202.733 552.085 202.512C552.372 202.287 552.684 202.131 553.022 202.043C553.363 201.952 553.699 201.907 554.028 201.907C554.238 201.907 554.48 201.932 554.753 201.983C555.028 202.032 555.294 202.133 555.549 202.286C555.808 202.439 556.022 202.671 556.193 202.981C556.363 203.29 556.449 203.705 556.449 204.225V208.537H555.443V207.651H555.392C555.324 207.793 555.21 207.945 555.051 208.107C554.892 208.269 554.68 208.407 554.416 208.52C554.152 208.634 553.829 208.691 553.449 208.691ZM553.602 207.787C554 207.787 554.335 207.709 554.608 207.553C554.883 207.397 555.091 207.195 555.23 206.948C555.372 206.701 555.443 206.441 555.443 206.168V205.248C555.4 205.299 555.307 205.346 555.162 205.388C555.02 205.428 554.855 205.463 554.667 205.495C554.483 205.523 554.302 205.549 554.126 205.571C553.953 205.591 553.812 205.608 553.704 205.623C553.443 205.657 553.199 205.712 552.971 205.789C552.747 205.863 552.565 205.975 552.426 206.125C552.289 206.273 552.221 206.475 552.221 206.731C552.221 207.08 552.351 207.344 552.609 207.523C552.87 207.699 553.201 207.787 553.602 207.787ZM558.284 208.537V201.992H559.256V202.981H559.324C559.443 202.657 559.659 202.394 559.972 202.192C560.284 201.99 560.636 201.89 561.028 201.89C561.102 201.89 561.195 201.891 561.305 201.894C561.416 201.897 561.5 201.901 561.557 201.907V202.929C561.523 202.921 561.445 202.908 561.323 202.891C561.203 202.871 561.077 202.861 560.943 202.861C560.625 202.861 560.341 202.928 560.091 203.062C559.844 203.192 559.648 203.374 559.503 203.607C559.361 203.837 559.29 204.1 559.29 204.395V208.537H558.284ZM563.687 206.151L563.669 204.907H563.874L566.738 201.992H567.982L564.931 205.077H564.846L563.687 206.151ZM562.749 208.537V199.81H563.755V208.537H562.749ZM566.908 208.537L564.351 205.299L565.067 204.6L568.187 208.537H566.908ZM569.276 208.537V201.992H570.282V208.537H569.276ZM569.788 200.901C569.592 200.901 569.423 200.834 569.281 200.701C569.141 200.567 569.072 200.407 569.072 200.219C569.072 200.032 569.141 199.871 569.281 199.738C569.423 199.604 569.592 199.537 569.788 199.537C569.984 199.537 570.151 199.604 570.291 199.738C570.433 199.871 570.504 200.032 570.504 200.219C570.504 200.407 570.433 200.567 570.291 200.701C570.151 200.834 569.984 200.901 569.788 200.901ZM573.13 204.6V208.537H572.124V201.992H573.096V203.015H573.181C573.334 202.682 573.567 202.415 573.88 202.213C574.192 202.009 574.596 201.907 575.09 201.907C575.533 201.907 575.921 201.998 576.253 202.179C576.586 202.358 576.844 202.631 577.029 202.998C577.213 203.361 577.306 203.821 577.306 204.378V208.537H576.3V204.446C576.3 203.932 576.167 203.532 575.9 203.245C575.633 202.955 575.266 202.81 574.8 202.81C574.479 202.81 574.192 202.88 573.939 203.019C573.689 203.158 573.492 203.361 573.347 203.628C573.202 203.895 573.13 204.219 573.13 204.6ZM581.786 211.128C581.3 211.128 580.882 211.066 580.533 210.941C580.183 210.819 579.892 210.657 579.659 210.455C579.429 210.256 579.246 210.043 579.109 209.816L579.911 209.253C580.001 209.373 580.117 209.509 580.256 209.662C580.395 209.819 580.585 209.954 580.827 210.067C581.071 210.184 581.391 210.242 581.786 210.242C582.314 210.242 582.75 210.114 583.094 209.858C583.438 209.603 583.609 209.202 583.609 208.657V207.327H583.524C583.45 207.446 583.345 207.594 583.209 207.77C583.075 207.944 582.882 208.098 582.629 208.235C582.379 208.368 582.041 208.435 581.615 208.435C581.087 208.435 580.612 208.31 580.192 208.06C579.774 207.81 579.443 207.446 579.199 206.969C578.957 206.492 578.837 205.912 578.837 205.231C578.837 204.56 578.955 203.976 579.19 203.479C579.426 202.979 579.754 202.593 580.175 202.32C580.595 202.044 581.081 201.907 581.632 201.907C582.058 201.907 582.396 201.978 582.646 202.12C582.899 202.259 583.092 202.418 583.226 202.597C583.362 202.773 583.467 202.918 583.541 203.032H583.644V201.992H584.615V208.725C584.615 209.287 584.487 209.745 584.232 210.097C583.979 210.452 583.638 210.712 583.209 210.877C582.783 211.044 582.308 211.128 581.786 211.128ZM581.751 207.532C582.155 207.532 582.496 207.439 582.774 207.255C583.053 207.07 583.264 206.804 583.409 206.458C583.554 206.111 583.626 205.696 583.626 205.213C583.626 204.742 583.555 204.326 583.413 203.965C583.271 203.604 583.061 203.321 582.783 203.117C582.504 202.912 582.161 202.81 581.751 202.81C581.325 202.81 580.97 202.918 580.686 203.134C580.405 203.35 580.193 203.64 580.051 204.003C579.912 204.367 579.842 204.77 579.842 205.213C579.842 205.668 579.913 206.07 580.055 206.419C580.2 206.766 580.413 207.039 580.695 207.238C580.979 207.434 581.331 207.532 581.751 207.532ZM594.467 203.458L593.564 203.713C593.507 203.563 593.423 203.417 593.313 203.275C593.205 203.13 593.057 203.01 592.869 202.917C592.682 202.823 592.442 202.776 592.149 202.776C591.749 202.776 591.415 202.868 591.148 203.053C590.884 203.235 590.751 203.466 590.751 203.748C590.751 203.998 590.842 204.195 591.024 204.34C591.206 204.485 591.49 204.606 591.876 204.702L592.848 204.941C593.433 205.083 593.869 205.3 594.156 205.593C594.443 205.883 594.587 206.256 594.587 206.713C594.587 207.088 594.479 207.424 594.263 207.719C594.05 208.015 593.751 208.248 593.368 208.418C592.984 208.588 592.538 208.674 592.03 208.674C591.362 208.674 590.81 208.529 590.372 208.239C589.935 207.949 589.658 207.526 589.541 206.969L590.496 206.731C590.587 207.083 590.759 207.347 591.011 207.523C591.267 207.699 591.601 207.787 592.013 207.787C592.482 207.787 592.854 207.688 593.129 207.489C593.408 207.287 593.547 207.046 593.547 206.765C593.547 206.537 593.467 206.347 593.308 206.194C593.149 206.037 592.905 205.921 592.575 205.844L591.484 205.588C590.885 205.446 590.445 205.226 590.163 204.928C589.885 204.627 589.746 204.25 589.746 203.799C589.746 203.429 589.85 203.103 590.057 202.819C590.267 202.535 590.553 202.312 590.913 202.15C591.277 201.988 591.689 201.907 592.149 201.907C592.797 201.907 593.305 202.049 593.675 202.333C594.047 202.617 594.311 202.992 594.467 203.458ZM598.76 208.674C598.169 208.674 597.65 208.533 597.204 208.252C596.761 207.971 596.414 207.577 596.164 207.071C595.917 206.566 595.794 205.975 595.794 205.299C595.794 204.617 595.917 204.022 596.164 203.513C596.414 203.005 596.761 202.61 597.204 202.329C597.65 202.047 598.169 201.907 598.76 201.907C599.351 201.907 599.868 202.047 600.311 202.329C600.757 202.61 601.103 203.005 601.351 203.513C601.601 204.022 601.726 204.617 601.726 205.299C601.726 205.975 601.601 206.566 601.351 207.071C601.103 207.577 600.757 207.971 600.311 208.252C599.868 208.533 599.351 208.674 598.76 208.674ZM598.76 207.77C599.209 207.77 599.578 207.655 599.868 207.425C600.157 207.195 600.372 206.892 600.511 206.517C600.65 206.142 600.72 205.736 600.72 205.299C600.72 204.861 600.65 204.454 600.511 204.076C600.372 203.698 600.157 203.392 599.868 203.16C599.578 202.927 599.209 202.81 598.76 202.81C598.311 202.81 597.941 202.927 597.652 203.16C597.362 203.392 597.147 203.698 597.008 204.076C596.869 204.454 596.799 204.861 596.799 205.299C596.799 205.736 596.869 206.142 597.008 206.517C597.147 206.892 597.362 207.195 597.652 207.425C597.941 207.655 598.311 207.77 598.76 207.77ZM604.266 199.81V208.537H603.261V199.81H604.266ZM608.58 208.674C608.035 208.674 607.553 208.536 607.135 208.26C606.718 207.982 606.391 207.59 606.155 207.084C605.919 206.576 605.802 205.975 605.802 205.282C605.802 204.594 605.919 203.998 606.155 203.492C606.391 202.986 606.719 202.596 607.14 202.32C607.56 202.044 608.046 201.907 608.597 201.907C609.023 201.907 609.36 201.978 609.607 202.12C609.857 202.259 610.047 202.418 610.178 202.597C610.312 202.773 610.415 202.918 610.489 203.032H610.574V199.81H611.58V208.537H610.608V207.532H610.489C610.415 207.651 610.31 207.802 610.174 207.983C610.037 208.162 609.843 208.323 609.59 208.465C609.337 208.604 609 208.674 608.58 208.674ZM608.716 207.77C609.12 207.77 609.461 207.665 609.739 207.455C610.017 207.242 610.229 206.948 610.374 206.573C610.519 206.195 610.591 205.759 610.591 205.265C610.591 204.776 610.52 204.348 610.378 203.982C610.236 203.613 610.026 203.326 609.748 203.121C609.469 202.914 609.125 202.81 608.716 202.81C608.29 202.81 607.935 202.919 607.651 203.138C607.37 203.354 607.158 203.648 607.016 204.02C606.877 204.39 606.807 204.804 606.807 205.265C606.807 205.731 606.878 206.154 607.02 206.535C607.165 206.912 607.378 207.213 607.66 207.438C607.944 207.66 608.296 207.77 608.716 207.77Z" fill="#424242"/>
<rect x="435.751" y="182.332" width="60.8625" height="46.1662" rx="5" fill="#00EBA5"/>
<path d="M1128.12 315.282H1129.84C1129.84 313.183 1127.46 312.226 1125.53 312.005V310.473H1123.8V312.005C1121.86 312.226 1119.48 313.183 1119.48 315.282C1119.48 317.284 1121.78 318.325 1123.8 318.56V322.237C1122.55 322.051 1121.21 321.479 1121.21 320.461H1119.48C1119.48 322.376 1121.58 323.508 1123.8 323.743V325.27H1125.53V323.739C1127.46 323.518 1129.84 322.56 1129.84 320.461C1129.84 318.362 1127.46 317.405 1125.53 317.184V313.506C1126.67 313.683 1128.12 314.203 1128.12 315.282ZM1121.21 315.282C1121.21 314.203 1122.65 313.683 1123.8 313.506V317.057C1122.62 316.87 1121.21 316.316 1121.21 315.282ZM1128.12 320.461C1128.12 321.54 1126.67 322.06 1125.53 322.237V318.685C1126.67 318.862 1128.12 319.382 1128.12 320.461Z" fill="#4DB6AC"/>
<path d="M1128.12 369.735H1129.84C1129.84 367.636 1127.46 366.678 1125.53 366.458V364.926H1123.8V366.458C1121.86 366.678 1119.48 367.636 1119.48 369.735C1119.48 371.737 1121.78 372.777 1123.8 373.012V376.689C1122.55 376.503 1121.21 375.931 1121.21 374.913H1119.48C1119.48 376.829 1121.58 377.961 1123.8 378.195V379.722H1125.53V378.191C1127.46 377.97 1129.84 377.012 1129.84 374.913C1129.84 372.814 1127.46 371.857 1125.53 371.637V367.959C1126.67 368.136 1128.12 368.655 1128.12 369.735ZM1121.21 369.735C1121.21 368.655 1122.65 368.136 1123.8 367.959V371.509C1122.62 371.322 1121.21 370.768 1121.21 369.735ZM1128.12 374.913C1128.12 375.993 1126.67 376.512 1125.53 376.689V373.138C1126.67 373.315 1128.12 373.834 1128.12 374.913Z" fill="#4DB6AC"/>
<path d="M1128.12 425.371H1129.84C1129.84 423.272 1127.46 422.314 1125.53 422.094V420.562H1123.8V422.094C1121.86 422.314 1119.48 423.272 1119.48 425.371C1119.48 427.373 1121.78 428.414 1123.8 428.648V432.325C1122.55 432.14 1121.21 431.568 1121.21 430.55H1119.48C1119.48 432.465 1121.58 433.597 1123.8 433.832V435.359H1125.53V433.827C1127.46 433.607 1129.84 432.649 1129.84 430.55C1129.84 428.451 1127.46 427.493 1125.53 427.273V423.595C1126.67 423.772 1128.12 424.291 1128.12 425.371ZM1121.21 425.371C1121.21 424.291 1122.65 423.772 1123.8 423.595V427.146C1122.62 426.958 1121.21 426.404 1121.21 425.371ZM1128.12 430.55C1128.12 431.629 1126.67 432.148 1125.53 432.325V428.774C1126.67 428.951 1128.12 429.47 1128.12 430.55Z" fill="#4DB6AC"/>
<path d="M1128.12 481.007H1129.84C1129.84 478.908 1127.46 477.951 1125.53 477.73V476.198H1123.8V477.73C1121.86 477.951 1119.48 478.908 1119.48 481.007C1119.48 483.009 1121.78 484.05 1123.8 484.284V487.961C1122.55 487.776 1121.21 487.204 1121.21 486.186H1119.48C1119.48 488.101 1121.58 489.233 1123.8 489.468V490.995H1125.53V489.463C1127.46 489.243 1129.84 488.285 1129.84 486.186C1129.84 484.087 1127.46 483.129 1125.53 482.909V479.231C1126.67 479.408 1128.12 479.927 1128.12 481.007ZM1121.21 481.007C1121.21 479.927 1122.65 479.408 1123.8 479.231V482.782C1122.62 482.595 1121.21 482.04 1121.21 481.007ZM1128.12 486.186C1128.12 487.265 1126.67 487.785 1125.53 487.961V484.41C1126.67 484.587 1128.12 485.106 1128.12 486.186Z" fill="#4DB6AC"/>
<path d="M1128.12 536.643H1129.84C1129.84 534.544 1127.46 533.587 1125.53 533.366V531.834H1123.8V533.366C1121.86 533.587 1119.48 534.544 1119.48 536.643C1119.48 538.645 1121.78 539.686 1123.8 539.921V543.598C1122.55 543.412 1121.21 542.84 1121.21 541.822H1119.48C1119.48 543.737 1121.58 544.869 1123.8 545.104V546.631H1125.53V545.099C1127.46 544.879 1129.84 543.921 1129.84 541.822C1129.84 539.723 1127.46 538.766 1125.53 538.545V534.867C1126.67 535.044 1128.12 535.564 1128.12 536.643ZM1121.21 536.643C1121.21 535.564 1122.65 535.044 1123.8 534.867V538.418C1122.62 538.231 1121.21 537.677 1121.21 536.643ZM1128.12 541.822C1128.12 542.901 1126.67 543.421 1125.53 543.598V540.046C1126.67 540.223 1128.12 540.743 1128.12 541.822Z" fill="#4DB6AC"/>
<path d="M1128.12 592.279H1129.84C1129.84 590.18 1127.46 589.223 1125.53 589.002V587.47H1123.8V589.002C1121.86 589.223 1119.48 590.18 1119.48 592.279C1119.48 594.281 1121.78 595.322 1123.8 595.557V599.234C1122.55 599.048 1121.21 598.476 1121.21 597.458H1119.48C1119.48 599.374 1121.58 600.506 1123.8 600.74V602.267H1125.53V600.736C1127.46 600.515 1129.84 599.557 1129.84 597.458C1129.84 595.359 1127.46 594.402 1125.53 594.181V590.504C1126.67 590.68 1128.12 591.2 1128.12 592.279ZM1121.21 592.279C1121.21 591.2 1122.65 590.68 1123.8 590.504V594.054C1122.62 593.867 1121.21 593.313 1121.21 592.279ZM1128.12 597.458C1128.12 598.538 1126.67 599.057 1125.53 599.234V595.682C1126.67 595.859 1128.12 596.379 1128.12 597.458Z" fill="#4DB6AC"/>
<line x1="265.258" y1="370.034" x2="366.258" y2="397.034" stroke="#424242" stroke-width="2"/>
<line x1="363.842" y1="397.013" x2="469.842" y2="380.013" stroke="#424242" stroke-width="2"/>
<line x1="467.703" y1="380.045" x2="573.703" y2="347.045" stroke="#424242" stroke-width="2"/>
<line x1="572.383" y1="347.076" x2="678.383" y2="391.076" stroke="#424242" stroke-width="2"/>
<line x1="677.753" y1="391.031" x2="775.753" y2="366.031" stroke="#424242" stroke-width="2"/>
<line x1="776" y1="366" x2="878" y2="366" stroke="#424242" stroke-width="2"/>
<line x1="877.72" y1="366.04" x2="980.72" y2="336.04" stroke="#424242" stroke-width="2"/>
<defs>
<filter id="filter0_d_870_74" x="0" y="0" width="1282" height="805.019" filterUnits="userSpaceOnUse" color-interpolation-filters="sRGB">
<feFlood flood-opacity="0" result="BackgroundImageFix"/>
<feColorMatrix in="SourceAlpha" type="matrix" values="0 0 0 0 0 0 0 0 0 0 0 0 0 0 0 0 0 0 127 0" result="hardAlpha"/>
<feMorphology radius="20" operator="dilate" in="SourceAlpha" result="effect1_dropShadow_870_74"/>
<feOffset/>
<feGaussianBlur stdDeviation="35"/>
<feComposite in2="hardAlpha" operator="out"/>
<feColorMatrix type="matrix" values="0 0 0 0 0.533333 0 0 0 0 0.576471 0 0 0 0 0.607843 0 0 0 0.2 0"/>
<feBlend mode="normal" in2="BackgroundImageFix" result="effect1_dropShadow_870_74"/>
<feBlend mode="normal" in="SourceGraphic" in2="effect1_dropShadow_870_74" result="shape"/>
</filter>
</defs>
</svg>
