<svg width="945" height="706" viewBox="0 0 945 706" fill="none" xmlns="http://www.w3.org/2000/svg">
<path fill-rule="evenodd" clip-rule="evenodd" d="M568.852 173.757C693.671 149.338 757.403 -41.815 864.166 8.35469C975.387 60.6194 794.819 181.539 779.326 272.662C774.503 301.03 787.132 329.231 805.224 355.02C841.878 407.267 975.562 447.553 938.604 499.702C903.23 549.616 776.551 491.539 697.88 506.485C645.824 516.374 613.997 549.789 568.852 569.948C472.696 612.885 360.755 749.007 281.398 692.457C188.741 626.429 437.579 511.55 374.153 431.204C313.953 354.945 86.4072 426.709 15.0214 355.02C-37.8632 301.91 60.8817 228.289 125.576 181.568C185.173 138.528 270.847 108.929 357.908 107.395C436.745 106.006 493.081 188.58 568.852 173.757Z" fill="#E4F4F3"/>
</svg>
